# xmcd
#
# Track frame offsets:
# 150
# 10306
# 18675
# 32632
# 44516
# 55203
# 66535
# 76399
# 90904
# 107474
# 116507
# 130534
# 145860
# 158904
# 170261
# 178936
# 187321
# 191257
# 201186
# 214359
# 227532
# 236565
# 252992
# 268318
# 282702
# 298322
# 312349
#
# Disc length: 4349 seconds
#
# Revision: 0
# Processed by: cddbd v1.4PL0 Copyright (c) Steve Scherf et al.
# Submitted via: Audion 3.0.2 (http://www.panic.com/audion/)
#
DISCID=9910fb1b
DTITLE=white strips - afaswhit
DYEAR=1900
DGENRE=
TTITLE0=ZX
TTITLE1=zxCzxczxc
TTITLE2=zxczxc
TTITLE3=zxczx
TTITLE4=xzzxc
TTITLE5=zxczxc
TTITLE6=zzxcxzc
TTITLE7=zxcxcxzczxc
TTITLE8=zxc
TTITLE9=xzzxcz
TTITLE10=zxxzxc
TTITLE11=zxczxcx
TTITLE12=xzxc
TTITLE13=zxxzczx
TTITLE14=zxcxczx
TTITLE15=zxxzzxcgjg
TTITLE16=jhgjhg
TTITLE17=jhgj
TTITLE18=jhgkjhg
TTITLE19=kjhgkjhg
TTITLE20=jhgkjhg
TTITLE21=jhg
TTITLE22=cv
TTITLE23=jhg
TTITLE24=jhgjhg
TTITLE25=jhghjg
TTITLE26=jhg
EXTD=
EXTT0=
EXTT1=
EXTT2=
EXTT3=
EXTT4=
EXTT5=
EXTT6=
EXTT7=
EXTT8=
EXTT9=
EXTT10=
EXTT11=
EXTT12=
EXTT13=
EXTT14=
EXTT15=
EXTT16=
EXTT17=
EXTT18=
EXTT19=
EXTT20=
EXTT21=
EXTT22=
EXTT23=
EXTT24=
EXTT25=
EXTT26=
PLAYORDER=
